<?xml version="1.0" standalone="no"?>
<!DOCTYPE svg PUBLIC "-//W3C//DTD SVG 20010904//EN"
 "http://www.w3.org/TR/2001/REC-SVG-20010904/DTD/svg10.dtd">
<svg version="1.0" xmlns="http://www.w3.org/2000/svg"
 width="300.000000pt" height="300.000000pt" viewBox="0 0 300.000000 300.000000"
 preserveAspectRatio="xMidYMid meet">

<g transform="translate(0.000000,300.000000) scale(0.100000,-0.100000)"
fill="#000000" stroke="none">
<path d="M1375 2356 c-225 -44 -408 -181 -508 -381 -101 -202 -101 -425 0
-635 86 -178 262 -320 459 -370 161 -41 353 -18 508 62 98 52 222 171 279 268
173 298 103 685 -164 907 -65 53 -192 117 -273 138 -87 22 -220 27 -301 11z
m325 -83 c109 -36 175 -77 260 -163 194 -193 243 -480 125 -729 -77 -162 -203
-275 -377 -339 -65 -23 -87 -26 -208 -26 -121 0 -143 2 -208 26 -259 93 -425
313 -439 583 -18 328 214 616 545 675 76 14 218 1 302 -27z"/>
<path d="M1277 2073 c-4 -3 -7 -28 -7 -55 l0 -48 -85 0 c-78 0 -85 -2 -85 -20
0 -18 7 -20 85 -20 l85 0 0 -123 0 -124 -95 -126 c-71 -95 -95 -134 -95 -157
0 -16 3 -30 8 -29 4 0 45 53 92 117 l85 117 3 -188 2 -187 25 0 25 0 0 425 c0
405 -1 425 -18 425 -10 0 -22 -3 -25 -7z"/>
<path d="M1530 1988 c-75 -46 -140 -127 -140 -176 l1 -37 27 35 c115 149 184
187 285 159 84 -23 138 -106 157 -241 29 -209 -109 -421 -290 -445 -34 -5 -40
-9 -40 -30 0 -23 2 -24 43 -18 189 30 337 219 337 433 0 216 -100 352 -260
352 -57 0 -74 -5 -120 -32z"/>
<path d="M749 875 c-3 -2 0 -44 5 -92 9 -68 15 -88 27 -91 13 -2 18 9 24 55
l8 58 11 -55 c8 -37 17 -56 28 -58 13 -3 17 11 24 80 11 107 11 101 -3 105 -7
3 -14 -17 -19 -54 l-7 -58 -11 53 c-6 29 -15 53 -21 53 -5 0 -15 -22 -20 -48
l-11 -48 -7 53 c-7 47 -15 61 -28 47z"/>
<path d="M997 873 c-2 -4 -14 -40 -26 -80 -12 -40 -24 -79 -27 -88 -4 -9 0
-15 9 -15 9 0 19 9 22 20 5 14 15 20 37 20 21 0 31 -6 35 -20 6 -22 34 -28 32
-7 0 6 -13 48 -27 91 -25 73 -43 100 -55 79z m32 -100 c1 -7 -8 -13 -19 -13
-23 0 -23 0 -9 37 10 26 12 27 19 8 5 -11 9 -26 9 -32z"/>
<path d="M1137 874 c-15 -15 -6 -24 23 -24 l30 0 0 -80 c0 -64 3 -80 15 -80
12 0 15 16 15 80 l0 80 31 0 c20 0 29 4 27 13 -5 13 -129 23 -141 11z"/>
<path d="M1365 798 c-15 -46 -28 -89 -30 -95 -3 -7 3 -13 11 -13 9 0 18 9 21
20 4 15 14 20 39 20 27 0 34 -4 34 -20 0 -13 7 -20 20 -20 18 0 17 5 -13 92
-18 50 -37 93 -44 95 -6 2 -22 -30 -38 -79z m54 -25 c1 -7 -8 -13 -18 -13 -18
0 -19 3 -9 32 10 28 12 30 19 12 4 -10 8 -25 8 -31z"/>
<path d="M1540 785 c0 -78 3 -95 15 -95 12 0 15 13 15 58 l1 57 30 -57 c45
-88 59 -78 59 37 0 78 -3 95 -15 95 -12 0 -15 -14 -16 -62 l0 -63 -32 63 c-45
89 -57 83 -57 -33z"/>
<path d="M1785 870 c-4 -6 -19 -48 -35 -95 -24 -70 -26 -85 -13 -85 8 0 17 9
20 20 4 15 14 20 38 20 24 0 34 -5 38 -20 3 -11 12 -20 21 -20 12 0 14 5 7 23
-5 12 -19 55 -30 95 -21 69 -32 84 -46 62z m25 -92 c0 -10 -7 -18 -15 -18 -16
0 -19 17 -9 45 5 13 8 14 15 3 5 -7 9 -21 9 -30z"/>
<path d="M1930 786 l0 -96 45 0 c68 0 107 47 70 84 -9 9 -11 17 -5 21 15 9 12
51 -5 65 -8 7 -35 15 -60 18 l-45 5 0 -97z m85 39 c0 -14 -8 -21 -27 -23 -24
-3 -28 0 -28 23 0 23 4 26 28 23 19 -2 27 -9 27 -23z m12 -71 c7 -19 -5 -31
-37 -36 -21 -2 -26 2 -28 25 -3 24 0 27 28 27 19 0 33 -6 37 -16z"/>
<path d="M2130 785 l0 -95 61 0 c42 0 59 4 57 12 -2 6 -22 12 -44 12 -35 1
-39 4 -42 28 -3 24 0 27 35 30 49 4 49 22 1 26 -33 3 -38 7 -38 28 0 22 4 24
46 24 69 0 52 24 -19 28 l-57 3 0 -96z"/>
<path d="M952 418 l3 -93 40 3 c22 2 48 5 57 8 26 8 34 51 14 73 -12 13 -14
21 -7 26 18 11 12 54 -8 65 -11 5 -38 10 -61 10 l-41 0 3 -92z m72 66 c21 -8
21 -40 0 -48 -30 -12 -44 -6 -44 17 0 35 12 43 44 31z m16 -89 c17 -20 -3 -45
-36 -45 -20 0 -24 5 -24 30 0 25 4 30 24 30 13 0 29 -7 36 -15z"/>
<path d="M1167 427 c-15 -46 -27 -89 -27 -95 0 -21 20 -13 30 13 7 19 17 25
40 25 19 0 30 -5 30 -14 0 -17 26 -40 33 -29 9 16 -48 178 -64 181 -10 2 -22
-21 -42 -81z m56 -29 c-2 -5 -11 -8 -20 -8 -11 0 -14 6 -9 23 3 12 6 29 7 37
0 8 7 2 14 -15 7 -16 11 -33 8 -37z"/>
<path d="M1342 418 c2 -62 7 -93 16 -96 8 -2 12 8 12 32 0 19 5 38 12 42 11 7
17 0 59 -58 24 -33 34 -16 14 23 -16 30 -16 35 -1 60 21 35 20 45 -4 69 -14
14 -33 20 -65 20 l-46 0 3 -92z m84 58 c15 -12 17 -18 8 -33 -15 -24 -58 -24
-62 0 -9 44 18 59 54 33z"/>
<path d="M1542 418 l3 -93 45 3 c27 2 53 11 65 23 19 19 19 21 3 49 -10 17
-13 32 -7 35 16 11 10 54 -10 65 -11 5 -38 10 -61 10 l-41 0 3 -92z m72 66
c35 -13 12 -54 -30 -54 -9 0 -14 11 -14 30 0 30 11 37 44 24z m16 -89 c17 -20
-3 -45 -36 -45 -20 0 -24 5 -24 30 0 25 4 30 24 30 13 0 29 -7 36 -15z"/>
<path d="M1740 418 l0 -93 57 1 c69 2 87 24 19 24 -44 0 -46 1 -46 30 0 28 3
30 35 30 19 0 35 5 35 10 0 6 -16 10 -35 10 -32 0 -35 2 -35 30 0 29 2 30 46
30 27 0 43 4 39 10 -3 6 -31 10 -61 10 l-54 0 0 -92z"/>
<path d="M1932 418 c2 -56 7 -92 13 -91 6 2 11 18 13 38 4 47 26 45 52 -5 11
-22 24 -40 29 -40 18 0 19 15 1 49 -16 33 -17 38 -3 47 21 13 20 64 -3 81 -10
7 -37 13 -61 13 l-44 0 3 -92z m72 66 c9 -3 16 -16 16 -29 0 -22 -17 -35 -46
-35 -9 0 -14 11 -14 28 0 40 11 49 44 36z"/>
</g>
</svg>
